<svg width="28" height="26" viewBox="0 0 28 26" fill="none" xmlns="http://www.w3.org/2000/svg">
<path d="M27.5531 14.2955L18.381 25.4639C18.0863 25.8213 17.7179 26 17.3496 26C16.9812 26 16.6129 25.8213 16.3182 25.4639C15.7288 24.7491 15.7288 23.6323 16.3182 22.9175L22.9855 14.7869H1.47331C0.662924 14.7869 -0.00012207 13.9828 -0.00012207 13C-0.00012207 12.0172 0.662924 11.2131 1.47331 11.2131H22.9855L16.3182 3.08248C15.7288 2.3677 15.7288 1.25086 16.3182 0.536083C16.9076 -0.178694 17.8285 -0.178694 18.4178 0.536083L27.59 11.7045C28.1425 12.4639 28.1425 13.6254 27.5531 14.2955Z" fill="#242527"/>
</svg>
