<svg width="28" height="26" viewBox="0 0 28 26" fill="none" xmlns="http://www.w3.org/2000/svg">
<path d="M0.446873 14.2955L9.619 25.4639C9.91369 25.8213 10.2821 26 10.6504 26C11.0188 26 11.3871 25.8213 11.6818 25.4639C12.2712 24.7491 12.2712 23.6323 11.6818 22.9175L5.01451 14.7869H26.5267C27.3371 14.7869 28.0001 13.9828 28.0001 13C28.0001 12.0172 27.3371 11.2131 26.5267 11.2131H5.01451L11.6818 3.08248C12.2712 2.3677 12.2712 1.25086 11.6818 0.536083C11.0924 -0.178694 10.1715 -0.178694 9.58217 0.536083L0.410025 11.7045C-0.142515 12.4639 -0.142502 13.6254 0.446873 14.2955Z" fill="#9A9A9A"/>
</svg>
