<svg width="293" height="40" viewBox="0 0 293 40" fill="none" xmlns="http://www.w3.org/2000/svg">
<rect width="40" height="40" rx="3" fill="#001F26"/>
<path d="M32.2876 5.6H28.5287C27.3689 5.6 26.4286 6.52142 26.4286 7.65812V11.3418C26.4286 12.4785 27.3689 13.4 28.5287 13.4H32.2876C33.4475 13.4 34.3878 12.4785 34.3878 11.3418V7.65812C34.3878 6.52142 33.4475 5.6 32.2876 5.6Z" fill="#FFEFDD"/>
<path d="M17.5674 13.6195H20.8682C22.2341 13.6956 23.5334 14.223 24.5541 15.1156L24.6779 15.2505C25.5935 16.2478 26.1324 17.5228 26.2045 18.8626V22.0839C26.2045 22.6451 26.432 23.1834 26.8369 23.5802C27.2419 23.977 27.7911 24.2 28.3638 24.2H32.2285C32.8011 24.2 33.3504 23.977 33.7553 23.5802C34.1602 23.1834 34.3878 22.6451 34.3878 22.0839V18.2965C34.3878 17.7353 34.1602 17.1971 33.7553 16.8003C33.3504 16.4034 32.8011 16.1805 32.2285 16.1805H28.9414C27.5743 16.1097 26.2733 15.5817 25.2555 14.6844L25.118 14.563C24.2053 13.5639 23.6669 12.2899 23.5914 10.9509V7.71608C23.5914 7.1549 23.3639 6.61664 22.959 6.2198C22.554 5.82296 22.0048 5.6 21.4321 5.6H17.5674C16.9947 5.6 16.4455 5.82296 16.0406 6.2198C15.6357 6.61664 15.4082 7.1549 15.4082 7.71608V11.5035C15.4082 12.0647 15.6357 12.6029 16.0406 12.9997C16.4455 13.3966 16.9947 13.6195 17.5674 13.6195Z" fill="#2387C0"/>
<path d="M32.8474 26.8801H29.5777C28.2166 26.7936 26.9269 26.2402 25.9264 25.3134L25.5586 24.9456C24.6516 23.9373 24.1178 22.6485 24.0463 21.2943V18.0245C24.0427 17.4583 23.8162 16.9164 23.4159 16.516C23.0155 16.1156 22.4735 15.8891 21.9073 15.8856L18.6376 15.8856C17.2877 15.8287 15.9985 15.3092 14.9864 14.4142L14.6185 14.0463C13.7115 13.0381 13.1778 11.7493 13.1062 10.3951V7.139C13.1062 6.5717 12.8809 6.02762 12.4798 5.62646C12.0787 5.22536 11.5346 5 10.9673 5H7.13894C6.57169 5 6.02759 5.22536 5.62651 5.62646C5.22537 6.02762 5 6.5717 5 7.139V10.9673C5 11.5346 5.22537 12.0787 5.62651 12.4798C6.02759 12.8809 6.57169 13.1063 7.13894 13.1063H10.3951C11.77 13.1692 13.0802 13.7086 14.1008 14.6322L14.4687 15C15.3728 16.01 15.9062 17.2977 15.9809 18.6512L15.9809 21.921C15.9845 22.4872 16.211 23.0292 16.6113 23.4295C17.0117 23.8299 17.5537 24.0564 18.1199 24.06H21.3896C22.7289 24.1438 24.0008 24.6765 25 25.5722L25.3679 25.9401C26.272 26.95 26.8053 28.2378 26.8801 29.5913V32.8611C26.8837 33.4273 27.1102 33.9692 27.5105 34.3696C27.9109 34.77 28.4529 34.9964 29.019 35H32.861C33.4272 34.9964 33.9692 34.77 34.3696 34.3696C34.7699 33.9692 34.9964 33.4273 35 32.8611V29.0191C34.9964 28.4506 34.768 27.9065 34.3647 27.5058C33.9615 27.105 33.4159 26.8801 32.8474 26.8801Z" fill="#2387C0"/>
<path d="M11.3097 26.6H7.26169C6.01259 26.6 5 27.5215 5 28.6582L5 32.3419C5 33.4786 6.01259 34.4 7.26169 34.4H11.3097C12.5588 34.4 13.5714 33.4786 13.5714 32.3419V28.6582C13.5714 27.5215 12.5588 26.6 11.3097 26.6Z" fill="#FFEFDD"/>
<path d="M21.8203 26.3804H18.5332C17.1662 26.3097 15.8651 25.7817 14.8473 24.8844L14.7098 24.763C13.7913 23.7568 13.2525 22.4724 13.1832 21.1239L13.1832 17.8891C13.1764 17.3441 12.9553 16.8226 12.5658 16.4334C12.1764 16.0443 11.6487 15.8173 11.0927 15.8H7.15926C6.58657 15.8 6.03739 16.023 5.63245 16.4198C5.22751 16.8166 5 17.3548 5 17.9161V21.7035C5 22.2647 5.22751 22.8029 5.63245 23.1998C6.03739 23.5966 6.58657 23.8195 7.15926 23.8195H10.4601C11.8259 23.8956 13.1252 24.423 14.146 25.3156L14.2698 25.4504C15.1854 26.4478 15.7242 27.7228 15.7963 29.0626V32.2839C15.7963 32.5629 15.8527 32.8392 15.962 33.0967C16.0714 33.3544 16.2317 33.5883 16.4337 33.7849C16.6356 33.9816 16.8753 34.1372 17.1389 34.2427C17.4024 34.3483 17.6847 34.4017 17.9694 34.3999H21.8203C22.393 34.3999 22.9422 34.177 23.3471 33.7802C23.7521 33.3834 23.9796 32.8451 23.9796 32.2839V28.4965C23.9796 27.9353 23.7521 27.397 23.3471 27.0002C22.9422 26.6034 22.393 26.3804 21.8203 26.3804Z" fill="#2387C0"/>
<path d="M21.0924 21.5094C19.7469 21.5897 18.78 20.7944 17.766 20.0318V21.9639C17.7662 22.0355 17.7944 22.1041 17.8445 22.1547C17.8945 22.2053 17.9624 22.2338 18.0332 22.234H21.9669C22.0376 22.2338 22.1055 22.2053 22.1555 22.1547C22.2056 22.104 22.2338 22.0355 22.234 21.9639V21.271C21.9168 21.3236 21.6806 21.4742 21.0924 21.5094Z" fill="#FFEFDD"/>
<path d="M21.5445 17.6405H21.2403C21.1306 17.6405 21.0417 17.7304 21.0417 17.8412V18.0686L20.189 17.2065C20.1388 17.156 20.0709 17.1277 20 17.1277C19.9292 17.1277 19.8613 17.156 19.8111 17.2065L17.9551 19.083C17.8418 19.2103 17.7751 19.373 17.766 19.544V19.8745C18.78 20.6372 19.9764 21.2731 21.2403 21.271C21.5617 21.2711 21.9168 21.0197 22.234 20.9671V19.544C22.2248 19.3731 22.1582 19.2104 22.045 19.083L21.7431 18.7777V17.8412C21.7431 17.7304 21.6542 17.6405 21.5445 17.6405Z" fill="#FFEFDD"/>
<path d="M65.354 16.5V30H61.97V17.976L63.518 19.506H53.186L54.716 17.976V30H51.314V16.5H65.354ZM67.6562 19.74H70.9862V22.836L70.8602 23.268V25.932L70.9862 26.724V32.97H67.6562V19.74ZM69.8882 24.87C70.0682 23.766 70.4102 22.812 70.9142 22.008C71.4182 21.204 72.0542 20.58 72.8222 20.136C73.6022 19.68 74.4662 19.452 75.4142 19.452C76.4222 19.452 77.3042 19.68 78.0602 20.136C78.8282 20.592 79.4282 21.228 79.8602 22.044C80.2922 22.848 80.5082 23.79 80.5082 24.87C80.5082 25.95 80.2922 26.898 79.8602 27.714C79.4282 28.518 78.8282 29.148 78.0602 29.604C77.3042 30.06 76.4222 30.288 75.4142 30.288C74.4542 30.288 73.5902 30.066 72.8222 29.622C72.0662 29.166 71.4302 28.536 70.9142 27.732C70.4102 26.916 70.0682 25.962 69.8882 24.87ZM77.1242 24.87C77.1242 24.318 77.0102 23.832 76.7822 23.412C76.5542 22.98 76.2362 22.644 75.8282 22.404C75.4322 22.152 74.9702 22.026 74.4422 22.026C73.9142 22.026 73.4102 22.152 72.9302 22.404C72.4622 22.644 72.0482 22.98 71.6882 23.412C71.3402 23.832 71.0702 24.318 70.8782 24.87C71.0702 25.422 71.3402 25.914 71.6882 26.346C72.0482 26.766 72.4622 27.102 72.9302 27.354C73.4102 27.594 73.9142 27.714 74.4422 27.714C74.9702 27.714 75.4322 27.594 75.8282 27.354C76.2362 27.102 76.5542 26.766 76.7822 26.346C77.0102 25.914 77.1242 25.422 77.1242 24.87ZM88.1693 30.288C86.8733 30.288 85.7393 30.06 84.7673 29.604C83.7953 29.148 83.0393 28.512 82.4993 27.696C81.9593 26.88 81.6893 25.938 81.6893 24.87C81.6893 23.79 81.9593 22.848 82.4993 22.044C83.0393 21.228 83.7953 20.592 84.7673 20.136C85.7513 19.68 86.8853 19.452 88.1693 19.452C89.4653 19.452 90.5993 19.68 91.5713 20.136C92.5433 20.592 93.2993 21.228 93.8393 22.044C94.3913 22.848 94.6673 23.79 94.6673 24.87C94.6673 25.95 94.3913 26.898 93.8393 27.714C93.2993 28.518 92.5433 29.148 91.5713 29.604C90.5993 30.06 89.4653 30.288 88.1693 30.288ZM88.1693 27.768C88.8293 27.768 89.3873 27.654 89.8433 27.426C90.3113 27.186 90.6653 26.85 90.9053 26.418C91.1573 25.986 91.2833 25.47 91.2833 24.87C91.2833 24.27 91.1573 23.754 90.9053 23.322C90.6653 22.878 90.3113 22.542 89.8433 22.314C89.3873 22.074 88.8293 21.954 88.1693 21.954C87.5333 21.954 86.9813 22.074 86.5133 22.314C86.0453 22.542 85.6853 22.878 85.4333 23.322C85.1813 23.754 85.0553 24.27 85.0553 24.87C85.0553 25.47 85.1813 25.986 85.4333 26.418C85.6853 26.85 86.0453 27.186 86.5133 27.426C86.9813 27.654 87.5333 27.768 88.1693 27.768ZM105.11 32.97V27.336L105.362 26.706V22.944L105.11 22.296V16.14H108.404V22.296L108.152 22.944V26.688L108.404 27.336V32.97H105.11ZM107.324 24.87C107.504 23.766 107.834 22.812 108.314 22.008C108.794 21.204 109.406 20.58 110.15 20.136C110.894 19.68 111.74 19.452 112.688 19.452C113.684 19.452 114.554 19.68 115.298 20.136C116.042 20.592 116.618 21.228 117.026 22.044C117.446 22.848 117.656 23.79 117.656 24.87C117.656 25.95 117.446 26.898 117.026 27.714C116.618 28.518 116.042 29.148 115.298 29.604C114.554 30.06 113.684 30.288 112.688 30.288C111.74 30.288 110.894 30.066 110.15 29.622C109.406 29.166 108.794 28.536 108.314 27.732C107.834 26.916 107.504 25.962 107.324 24.87ZM114.29 24.87C114.29 24.318 114.182 23.832 113.966 23.412C113.75 22.98 113.45 22.644 113.066 22.404C112.682 22.152 112.232 22.026 111.716 22.026C110.936 22.026 110.234 22.29 109.61 22.818C108.998 23.346 108.548 24.03 108.26 24.87C108.548 25.698 108.998 26.382 109.61 26.922C110.234 27.45 110.936 27.714 111.716 27.714C112.232 27.714 112.682 27.594 113.066 27.354C113.45 27.102 113.75 26.766 113.966 26.346C114.182 25.914 114.29 25.422 114.29 24.87ZM106.19 24.87C106.01 25.962 105.68 26.916 105.2 27.732C104.72 28.536 104.108 29.166 103.364 29.622C102.62 30.066 101.774 30.288 100.826 30.288C99.8421 30.288 98.9721 30.06 98.2161 29.604C97.4721 29.148 96.8901 28.518 96.4701 27.714C96.0621 26.898 95.8581 25.95 95.8581 24.87C95.8581 23.79 96.0621 22.848 96.4701 22.044C96.8901 21.228 97.4721 20.592 98.2161 20.136C98.9721 19.68 99.8421 19.452 100.826 19.452C101.774 19.452 102.62 19.68 103.364 20.136C104.108 20.58 104.72 21.204 105.2 22.008C105.692 22.812 106.022 23.766 106.19 24.87ZM99.2421 24.87C99.2421 25.422 99.3441 25.914 99.5481 26.346C99.7641 26.766 100.064 27.102 100.448 27.354C100.832 27.594 101.276 27.714 101.78 27.714C102.572 27.714 103.274 27.45 103.886 26.922C104.51 26.382 104.966 25.698 105.254 24.87C104.966 24.03 104.51 23.346 103.886 22.818C103.274 22.29 102.572 22.026 101.78 22.026C101.276 22.026 100.832 22.152 100.448 22.404C100.064 22.644 99.7641 22.98 99.5481 23.412C99.3441 23.832 99.2421 24.318 99.2421 24.87ZM119.353 19.596L121.009 19.938L122.683 19.596V30H119.353V19.596ZM121.027 18.66C120.439 18.66 119.959 18.51 119.587 18.21C119.215 17.898 119.029 17.49 119.029 16.986C119.029 16.47 119.215 16.062 119.587 15.762C119.959 15.462 120.439 15.312 121.027 15.312C121.627 15.312 122.107 15.462 122.467 15.762C122.827 16.062 123.007 16.47 123.007 16.986C123.007 17.49 122.827 17.898 122.467 18.21C122.107 18.51 121.627 18.66 121.027 18.66ZM126.584 19.74H137.456V30H134.126V20.712L135.656 22.242H128.258L129.68 20.964C129.74 21.696 129.788 22.362 129.824 22.962C129.872 23.55 129.896 24.084 129.896 24.564C129.896 26.544 129.596 27.984 128.996 28.884C128.396 29.772 127.424 30.216 126.08 30.216C125.696 30.216 125.33 30.174 124.982 30.09C124.646 30.018 124.316 29.886 123.992 29.694V27.3C124.208 27.384 124.418 27.45 124.622 27.498C124.838 27.534 125.03 27.552 125.198 27.552C125.798 27.552 126.224 27.288 126.476 26.76C126.74 26.22 126.872 25.332 126.872 24.096C126.872 23.52 126.848 22.872 126.8 22.152C126.752 21.42 126.68 20.616 126.584 19.74ZM139.621 30V19.74H142.933V29.154L141.889 27.624H145.705C146.209 27.624 146.599 27.504 146.875 27.264C147.151 27.024 147.289 26.682 147.289 26.238C147.289 25.794 147.151 25.452 146.875 25.212C146.599 24.96 146.209 24.834 145.705 24.834H141.889V22.566H146.245C147.133 22.566 147.907 22.722 148.567 23.034C149.227 23.346 149.737 23.778 150.097 24.33C150.469 24.882 150.655 25.53 150.655 26.274C150.655 27.018 150.469 27.672 150.097 28.236C149.737 28.8 149.227 29.238 148.567 29.55C147.919 29.85 147.157 30 146.281 30H139.621ZM156.378 16.5H159.78V30H156.378V16.5ZM162.068 19.74H165.398V30H162.068V19.74ZM170.618 19.74H173.948V30H170.618V19.74ZM163.976 23.52H171.896V26.022H163.976V23.52ZM179.246 20.892H182.594V30H179.246V20.892ZM175.268 19.74H186.59V22.278H175.268V19.74ZM193.443 30.288C192.219 30.288 191.121 30.06 190.149 29.604C189.189 29.148 188.433 28.512 187.881 27.696C187.329 26.88 187.053 25.926 187.053 24.834C187.053 23.766 187.317 22.83 187.845 22.026C188.373 21.222 189.099 20.592 190.023 20.136C190.959 19.68 192.015 19.452 193.191 19.452C194.391 19.452 195.423 19.716 196.287 20.244C197.151 20.772 197.817 21.516 198.285 22.476C198.753 23.436 198.987 24.564 198.987 25.86H189.735V23.754H197.151L195.945 24.51C195.909 23.946 195.771 23.472 195.531 23.088C195.303 22.692 194.997 22.392 194.613 22.188C194.229 21.972 193.773 21.864 193.245 21.864C192.669 21.864 192.171 21.978 191.751 22.206C191.331 22.434 191.001 22.752 190.761 23.16C190.533 23.568 190.419 24.042 190.419 24.582C190.419 25.266 190.569 25.848 190.869 26.328C191.181 26.808 191.625 27.174 192.201 27.426C192.789 27.678 193.503 27.804 194.343 27.804C195.111 27.804 195.879 27.702 196.647 27.498C197.415 27.282 198.105 26.982 198.717 26.598V28.776C198.021 29.256 197.223 29.628 196.323 29.892C195.435 30.156 194.475 30.288 193.443 30.288ZM200.652 19.74H203.982V22.836L203.856 23.268V25.932L203.982 26.724V32.97H200.652V19.74ZM202.884 24.87C203.064 23.766 203.406 22.812 203.91 22.008C204.414 21.204 205.05 20.58 205.818 20.136C206.598 19.68 207.462 19.452 208.41 19.452C209.418 19.452 210.3 19.68 211.056 20.136C211.824 20.592 212.424 21.228 212.856 22.044C213.288 22.848 213.504 23.79 213.504 24.87C213.504 25.95 213.288 26.898 212.856 27.714C212.424 28.518 211.824 29.148 211.056 29.604C210.3 30.06 209.418 30.288 208.41 30.288C207.45 30.288 206.586 30.066 205.818 29.622C205.062 29.166 204.426 28.536 203.91 27.732C203.406 26.916 203.064 25.962 202.884 24.87ZM210.12 24.87C210.12 24.318 210.006 23.832 209.778 23.412C209.55 22.98 209.232 22.644 208.824 22.404C208.428 22.152 207.966 22.026 207.438 22.026C206.91 22.026 206.406 22.152 205.926 22.404C205.458 22.644 205.044 22.98 204.684 23.412C204.336 23.832 204.066 24.318 203.874 24.87C204.066 25.422 204.336 25.914 204.684 26.346C205.044 26.766 205.458 27.102 205.926 27.354C206.406 27.594 206.91 27.714 207.438 27.714C207.966 27.714 208.428 27.594 208.824 27.354C209.232 27.102 209.55 26.766 209.778 26.346C210.006 25.914 210.12 25.422 210.12 24.87ZM215.189 19.74H218.519V30H215.189V19.74ZM223.739 19.74H227.069V30H223.739V19.74ZM217.097 23.52H225.017V26.022H217.097V23.52ZM235.103 30.288C233.879 30.288 232.781 30.06 231.809 29.604C230.849 29.148 230.093 28.512 229.541 27.696C228.989 26.88 228.713 25.926 228.713 24.834C228.713 23.766 228.977 22.83 229.505 22.026C230.033 21.222 230.759 20.592 231.683 20.136C232.619 19.68 233.675 19.452 234.851 19.452C236.051 19.452 237.083 19.716 237.947 20.244C238.811 20.772 239.477 21.516 239.945 22.476C240.413 23.436 240.647 24.564 240.647 25.86H231.395V23.754H238.811L237.605 24.51C237.569 23.946 237.431 23.472 237.191 23.088C236.963 22.692 236.657 22.392 236.273 22.188C235.889 21.972 235.433 21.864 234.905 21.864C234.329 21.864 233.831 21.978 233.411 22.206C232.991 22.434 232.661 22.752 232.421 23.16C232.193 23.568 232.079 24.042 232.079 24.582C232.079 25.266 232.229 25.848 232.529 26.328C232.841 26.808 233.285 27.174 233.861 27.426C234.449 27.678 235.163 27.804 236.003 27.804C236.771 27.804 237.539 27.702 238.307 27.498C239.075 27.282 239.765 26.982 240.377 26.598V28.776C239.681 29.256 238.883 29.628 237.983 29.892C237.095 30.156 236.135 30.288 235.103 30.288ZM242.312 30V19.74H245.642V28.506L244.634 27.498H250.844L250.016 28.506V19.74H253.346V28.506L252.428 27.498H258.728L257.72 28.506V19.74H261.05V30H242.312ZM263.213 19.74H266.543V30H263.213V19.74ZM271.763 19.74H275.093V30H271.763V19.74ZM265.121 23.52H273.041V26.022H265.121V23.52ZM278.986 19.74H289.858V30H286.528V20.712L288.058 22.242H280.66L282.082 20.964C282.142 21.696 282.19 22.362 282.226 22.962C282.274 23.55 282.298 24.084 282.298 24.564C282.298 26.544 281.998 27.984 281.398 28.884C280.798 29.772 279.826 30.216 278.482 30.216C278.098 30.216 277.732 30.174 277.384 30.09C277.048 30.018 276.718 29.886 276.394 29.694V27.3C276.61 27.384 276.82 27.45 277.024 27.498C277.24 27.534 277.432 27.552 277.6 27.552C278.2 27.552 278.626 27.288 278.878 26.76C279.142 26.22 279.274 25.332 279.274 24.096C279.274 23.52 279.25 22.872 279.202 22.152C279.154 21.42 279.082 20.616 278.986 19.74Z" fill="#001F26"/>
</svg>
